# xmcd CD database file
# Copyright (C) 1995 Ti Kan
#
# Track frame offsets:
#	202
#	12120
#	22250
#	33570
#	44972
#	56337
#	67922
#	78722
#	90910
#	102420
#	114310
#	126872
#	138872
#	150985
#	163242
#	175592
#	189122
#	200525
#	213197
#	228295
#	239517
#	253352
#	266552
#	279490
#	293780
#	305540
#
# Disc length: 4536 seconds
#
# Revision: 2
# Processed by: cddbd v1.4b41PL1 Copyright (c) Steve Scherf et al.
# Submitted via: NotifyCDPlayer(CDDB) 1.05
#
DISCID=6c11b61a
DTITLE=Adolph Hofner and his Texans - South Texas Swing
DYEAR=1900
DGENRE=
TTITLE0=Better Quit It Now
TTITLE1=How I Miss You Tonight
TTITLE2=Dirty Dog
TTITLE3=We Played a Game
TTITLE4=Does My Baby Love Me, Yes Sir!
TTITLE5=I'll Keep My Old Guitar
TTITLE6=Brown Eyed Sweet
TTITLE7=Maria Elena
TTITLE8=Spanish Two-Step
TTITLE9=Why Should I Cry Over You?
TTITLE10=Joe Turner Blues
TTITLE11=Sam, the Old Accordion Man
TTITLE12=Alamo Rag
TTITLE13=South Texas Swing
TTITLE14=Jessie Polka
TTITLE15=Sage Brush Shuffle
TTITLE16=Cotton-Eyed Joe
TTITLE17=Paul Jones
TTITLE18=Star Kovarna
TTITLE19=Na Marjanse
TTITLE20=Strashidlo
TTITLE21=Dis Ja Liebe Spim
TTITLE22=Julida Polka
TTITLE23=Kelley Waltz
TTITLE24=Longhorn Stomp
TTITLE25=Radio Broadcast
EXTD=
EXTT0=
EXTT1=
EXTT2=
EXTT3=
EXTT4=
EXTT5=
EXTT6=
EXTT7=
EXTT8=
EXTT9=
EXTT10=
EXTT11=
EXTT12=
EXTT13=
EXTT14=
EXTT15=
EXTT16=
EXTT17=
EXTT18=
EXTT19=
EXTT20=
EXTT21=
EXTT22=
EXTT23=
EXTT24=
EXTT25=
PLAYORDER=
